<svg width="40" height="40" viewBox="0 0 40 40" fill="none" xmlns="http://www.w3.org/2000/svg">
<path d="M36.8116 6.22046L26.9365 0.999289C25.5225 0.251711 23.9018 0.0994449 22.3734 0.570695C20.8449 1.04194 19.5914 2.08015 18.8438 3.49421C18.0961 4.90827 17.9438 6.52882 18.4151 8.05733C18.8863 9.58585 19.9245 10.8394 21.3386 11.587L31.2138 16.8082C31.3251 16.867 31.4373 16.9219 31.5506 16.9731C32.3427 17.3311 33.1776 17.5019 34.0027 17.5018C36.0181 17.5018 37.9734 16.4826 39.0938 14.6834C39.1685 14.5635 39.2395 14.4401 39.3066 14.3133C40.8498 11.3942 39.7306 7.76382 36.8116 6.22046ZM21.8868 10.5501C20.7497 9.9489 19.9149 8.94093 19.5359 7.71179C19.157 6.48265 19.2794 5.17952 19.8806 4.04249C20.4817 2.90546 21.4898 2.07054 22.7189 1.69163C23.1875 1.54718 23.6666 1.47554 24.1434 1.47554C24.9174 1.47554 25.6846 1.66421 26.3881 2.03624L30.8073 4.37273L26.3059 12.8866L21.8868 10.5501ZM38.2696 13.765C37.0285 16.1123 34.1092 17.0121 31.762 15.7712L27.3429 13.4348L31.8442 4.92101L36.2633 7.25741C38.6105 8.49843 39.5106 11.4177 38.2696 13.765Z" fill="white"/>
<path d="M14.0665 13.0025C13.746 12.9892 13.4695 13.2404 13.4561 13.564C13.4426 13.8876 13.694 14.1609 14.0176 14.1744C15.211 14.2242 16.3379 14.7131 17.1905 15.5512C18.1079 16.4527 18.6192 17.6575 18.6304 18.9437C18.6416 20.2299 18.1512 21.4434 17.2496 22.3608L13.7458 25.9259L6.87718 19.1755L10.381 15.6102C10.7562 15.2284 11.1867 14.9147 11.6604 14.6776C11.9501 14.5327 12.0674 14.1804 11.9224 13.8908C11.7776 13.6011 11.4252 13.4839 11.1355 13.6287C10.5459 13.9237 10.0105 14.3137 9.54437 14.788L1.71452 22.7551C0.0510866 24.4476 -0.399773 26.8862 0.352649 28.9834C0.647102 29.8041 1.12577 30.5724 1.78804 31.2234C1.85851 31.2927 1.93046 31.36 2.00374 31.4254C3.35866 32.6342 5.23382 33.1988 7.0207 32.852C8.24921 32.6136 9.37492 32.0469 10.2564 31.1499L18.0862 23.183C19.2074 22.0422 19.8172 20.533 19.8034 18.9336C19.7894 17.3341 19.1536 15.8358 18.0127 14.7147C16.9523 13.6724 15.5508 13.0644 14.0665 13.0025ZM9.41976 30.3277C8.52515 31.238 7.29726 31.7565 6.02726 31.7675C4.74367 31.7762 3.52757 31.2883 2.61023 30.3867C0.716555 28.5256 0.690071 25.4709 2.55124 23.5771L6.05499 20.0119L12.9236 26.7624C12.9236 26.7625 9.42038 30.327 9.41976 30.3277Z" fill="white"/>
<path d="M22.5542 26.531C20.9649 28.1204 20.1493 30.3186 20.3167 32.5619C20.3407 32.8848 20.6208 33.1271 20.9451 33.1031C21.2681 33.0791 21.5104 32.7976 21.4864 32.4747C21.3444 30.5722 22.036 28.7081 23.3837 27.3604C25.9336 24.8105 30.0828 24.8105 32.6328 27.3604C35.1828 29.9104 35.1828 34.0595 32.6328 36.6095C31.3975 37.8448 29.7552 38.5251 28.0082 38.5251C26.2613 38.5251 24.619 37.8448 23.3838 36.6095C22.8739 36.0996 22.4553 35.5164 22.1398 34.8762C21.9966 34.5856 21.645 34.4662 21.3545 34.6094C21.0639 34.7526 20.9445 35.1041 21.0877 35.3947C21.46 36.1502 21.9535 36.838 22.5543 37.4389C24.0111 38.8957 25.9481 39.698 28.0082 39.698C30.0684 39.698 32.0054 38.8957 33.4623 37.4389C36.4695 34.4316 36.4695 29.5383 33.4623 26.531C30.4547 23.5237 25.5616 23.5237 22.5542 26.531Z" fill="white"/>
<path d="M30.5654 35.1286C30.7155 35.1286 30.8656 35.0713 30.9802 34.9568C31.2092 34.7278 31.2092 34.3564 30.9802 34.1274L25.8658 29.013C25.6367 28.784 25.2654 28.784 25.0363 29.013C24.8073 29.2419 24.8073 29.6134 25.0363 29.8423L30.1507 34.9568C30.2653 35.0713 30.4154 35.1286 30.5654 35.1286Z" fill="white"/>
</svg>
