<svg xmlns="http://www.w3.org/2000/svg" width="30" height="41" viewBox="0 0 30 41">
    <g fill="none" fill-rule="evenodd">
        <g fill-rule="nonzero">
            <path fill="#0087BA" d="M28.41 10.356v25.397A4.247 4.247 0 0124.165 40H4.247A4.247 4.247 0 010 35.753V10.356a4.247 4.247 0 014.247-4.247h19.917a4.247 4.247 0 014.247 4.247z" transform="translate(.357)"/>
            <path fill="#0297CF" d="M28.41 10.356v25.397A4.247 4.247 0 0124.165 40H5.308a4.247 4.247 0 01-4.247-4.247V10.356a4.247 4.247 0 014.247-4.247h18.856a4.247 4.247 0 014.247 4.247z" transform="translate(.357)"/>
            <path fill="#F4F4F4" d="M22.164 10.448L24.674 10.448 24.674 35.181 3.736 35.181 3.736 10.448 6.247 10.448" transform="translate(.357)"/>
            <path fill="#5FC0CA" d="M20.42 4.938h-2.512c.135-.464.188-.963.134-1.482A3.869 3.869 0 0014.447.007a3.857 3.857 0 00-3.944 4.93H7.99c-.963 0-1.743.781-1.743 1.745v3.982c0 .962.78 1.742 1.743 1.742h12.43c.964 0 1.744-.78 1.744-1.742V6.682c0-.964-.78-1.744-1.743-1.744zm-6.214.44a1.52 1.52 0 110-3.041 1.52 1.52 0 010 3.041z" transform="translate(.357)"/>
            <g fill="#0297CF">
                <path d="M14.017 4.696H.671a.612.612 0 010-1.225h13.346a.612.612 0 110 1.225zM14.017 1.562H.671a.612.612 0 010-1.224h13.346a.612.612 0 110 1.224z" transform="translate(.357) translate(6.862 26.998)"/>
            </g>
        </g>
        <g fill="#02475B">
            <path d="M5.436 4.888c1.344 0 2.444-1.1 2.444-2.444C7.88 1.1 6.78 0 5.436 0a2.451 2.451 0 00-2.444 2.444c0 1.344 1.1 2.444 2.444 2.444zM.548 8.554v1.222h9.776V8.554c0-1.65-3.238-2.444-4.888-2.444S.548 6.904.548 8.554z" transform="translate(.357) translate(8.929 15)"/>
        </g>
    </g>
</svg>
